<svg width="400" height="300" viewBox="0 0 400 300" xmlns="http://www.w3.org/2000/svg">
  <defs>
    <linearGradient id="folderGrad" x1="0%" y1="0%" x2="0%" y2="100%">
      <stop offset="0%" style="stop-color:#A855F7"/>
      <stop offset="100%" style="stop-color:#7C3AED"/>
    </linearGradient>
  </defs>

  <!-- Folder 1 - Work -->
  <g transform="translate(50,30)">
    <path d="M0,20 L15,0 L60,0 L75,20 L100,20 L100,80 L0,80 Z" fill="url(#folderGrad)" opacity="0.9"/>
    <rect x="10" y="35" width="80" height="6" rx="3" fill="white" opacity="0.6"/>
    <rect x="10" y="48" width="60" height="6" rx="3" fill="white" opacity="0.4"/>
    <rect x="10" y="61" width="70" height="6" rx="3" fill="white" opacity="0.5"/>
  </g>

  <!-- Folder 2 - Personal -->
  <g transform="translate(160,60)">
    <path d="M0,20 L15,0 L60,0 L75,20 L100,20 L100,80 L0,80 Z" fill="#3B82F6" opacity="0.9"/>
    <rect x="10" y="35" width="80" height="6" rx="3" fill="white" opacity="0.6"/>
    <rect x="10" y="48" width="50" height="6" rx="3" fill="white" opacity="0.4"/>
    <rect x="10" y="61" width="65" height="6" rx="3" fill="white" opacity="0.5"/>
  </g>

  <!-- Folder 3 - Shopping -->
  <g transform="translate(270,40)">
    <path d="M0,20 L15,0 L60,0 L75,20 L100,20 L100,80 L0,80 Z" fill="#06B6D4" opacity="0.9"/>
    <rect x="10" y="35" width="80" height="6" rx="3" fill="white" opacity="0.6"/>
    <rect x="10" y="48" width="55" height="6" rx="3" fill="white" opacity="0.4"/>
  </g>

  <!-- Folder 4 - Finance -->
  <g transform="translate(80,150)">
    <path d="M0,20 L15,0 L60,0 L75,20 L100,20 L100,80 L0,80 Z" fill="#10B981" opacity="0.9"/>
    <rect x="10" y="35" width="80" height="6" rx="3" fill="white" opacity="0.6"/>
    <rect x="10" y="48" width="70" height="6" rx="3" fill="white" opacity="0.4"/>
    <rect x="10" y="61" width="45" height="6" rx="3" fill="white" opacity="0.5"/>
  </g>

  <!-- Folder 5 - Job Search -->
  <g transform="translate(220,170)">
    <path d="M0,20 L15,0 L60,0 L75,20 L100,20 L100,80 L0,80 Z" fill="#F59E0B" opacity="0.9"/>
    <rect x="10" y="35" width="80" height="6" rx="3" fill="white" opacity="0.6"/>
    <rect x="10" y="48" width="60" height="6" rx="3" fill="white" opacity="0.4"/>
    <rect x="10" y="61" width="75" height="6" rx="3" fill="white" opacity="0.5"/>
  </g>

  <!-- Connecting lines -->
  <line x1="100" y1="110" x2="160" y2="140" stroke="#E5E7EB" stroke-width="2" stroke-dasharray="4"/>
  <line x1="210" y1="140" x2="270" y2="120" stroke="#E5E7EB" stroke-width="2" stroke-dasharray="4"/>
  <line x1="180" y1="150" x2="220" y2="170" stroke="#E5E7EB" stroke-width="2" stroke-dasharray="4"/>
</svg>
